# Blender 4.3.0
# www.blender.org
mtllib uchigatana_sheath_1.mtl
o cube.043
v 0.458104 -1.097831 0.278898
v 0.458044 -1.111996 0.370624
v 0.461828 0.650887 0.548984
v 0.461769 0.636720 0.640709
v 0.427107 -1.111929 0.370614
v 0.427166 -1.097763 0.278888
v 0.430831 0.636787 0.640699
v 0.430891 0.650954 0.548974
v 0.462725 0.633116 0.634833
v 0.462746 0.643076 0.638218
v 0.462736 0.636779 0.624060
v 0.462757 0.646738 0.627445
v 0.429884 0.643147 0.638208
v 0.429863 0.633189 0.634822
v 0.429895 0.646810 0.627435
v 0.429874 0.636851 0.624049
v 0.462809 0.638457 0.622336
v 0.462833 0.649027 0.620996
v 0.462811 0.637225 0.612617
v 0.462834 0.647797 0.611277
v 0.429833 0.649100 0.620985
v 0.429809 0.638528 0.622325
v 0.429833 0.647868 0.611267
v 0.429810 0.637297 0.612606
v 0.462742 0.637097 0.610029
v 0.462765 0.647198 0.607091
v 0.462738 0.632718 0.594978
v 0.462759 0.642819 0.592041
v 0.429903 0.647270 0.607080
v 0.429880 0.637169 0.610019
v 0.429897 0.642890 0.592030
v 0.429874 0.632790 0.594968
v 0.462808 0.633217 0.591299
v 0.462806 0.632640 0.595036
v 0.462823 0.640352 0.592401
v 0.462821 0.639775 0.596138
v 0.429806 0.632712 0.595025
v 0.429808 0.633289 0.591288
v 0.429821 0.639847 0.596128
v 0.429824 0.640424 0.592391
v 0.462780 0.650734 0.584197
v 0.462762 0.641990 0.578349
v 0.462756 0.642018 0.597226
v 0.462740 0.633274 0.591378
v 0.429901 0.642062 0.578339
v 0.429917 0.650804 0.584187
v 0.429877 0.633346 0.591367
v 0.429894 0.642090 0.597215
v 0.462865 0.656674 0.571492
v 0.462845 0.646999 0.567026
v 0.462854 0.652568 0.580387
v 0.462835 0.642892 0.575921
v 0.429846 0.647070 0.567015
v 0.429865 0.656745 0.571482
v 0.429834 0.642964 0.575911
v 0.429853 0.652640 0.580376
v 0.462802 0.656194 0.553278
v 0.462779 0.645678 0.553502
v 0.462798 0.656437 0.564653
v 0.462775 0.645921 0.564877
v 0.429917 0.645750 0.553491
v 0.429939 0.656266 0.553267
v 0.429912 0.645992 0.564866
v 0.429936 0.656509 0.564642
v 0.462728 0.633945 0.632994
v 0.462721 0.631709 0.636902
v 0.462746 0.643076 0.638218
v 0.462739 0.640840 0.642127
v 0.429859 0.631781 0.636892
v 0.429865 0.634017 0.632983
v 0.429877 0.640912 0.642117
v 0.429884 0.643147 0.638208
v 0.462777 0.645000 0.550907
v 0.462779 0.645877 0.555323
v 0.462801 0.655318 0.548860
v 0.462802 0.656194 0.553277
v 0.429915 0.645948 0.555313
v 0.429915 0.645072 0.550896
v 0.429939 0.656266 0.553267
v 0.429940 0.655391 0.548850
v 0.462928 0.640397 0.591434
v 0.462924 0.639525 0.597073
v 0.462936 0.644337 0.592043
v 0.462932 0.643467 0.597682
v 0.429717 0.639597 0.597063
v 0.429721 0.640470 0.591423
v 0.429725 0.643539 0.597671
v 0.429729 0.644410 0.592032
v 0.462780 0.645425 0.547167
v 0.462777 0.644790 0.551277
v 0.462802 0.655753 0.548762
v 0.462799 0.655118 0.552873
v 0.429915 0.644862 0.551267
v 0.429917 0.645497 0.547156
v 0.429937 0.655189 0.552863
v 0.429939 0.655825 0.548752
v 0.462688 0.650540 0.548061
v 0.462626 0.636111 0.641485
v 0.462711 0.661581 0.549766
v 0.462650 0.647151 0.643190
v 0.429971 0.636183 0.641475
v 0.430032 0.650610 0.548050
v 0.429994 0.647223 0.643180
v 0.430056 0.661652 0.549756
v 0.462722 0.631600 0.636684
v 0.462718 0.630965 0.640794
v 0.462744 0.641926 0.638278
v 0.462740 0.641292 0.642390
v 0.429856 0.631036 0.640784
v 0.429860 0.631671 0.636673
v 0.429878 0.641364 0.642380
v 0.429881 0.641998 0.638268
v 0.462798 0.656437 0.564653
v 0.462775 0.645921 0.564877
v 0.462797 0.656587 0.571732
v 0.462774 0.646071 0.571956
v 0.429912 0.645992 0.564866
v 0.429936 0.656509 0.564642
v 0.429911 0.646143 0.571946
v 0.429934 0.656659 0.571722
v 0.462736 0.636779 0.624060
v 0.462757 0.646738 0.627445
v 0.462744 0.639060 0.617355
v 0.462765 0.649018 0.620742
v 0.429895 0.646810 0.627435
v 0.429874 0.636851 0.624049
v 0.429902 0.649090 0.620731
v 0.429882 0.639132 0.617345
v 0.462811 0.637225 0.612617
v 0.462834 0.647797 0.611277
v 0.462810 0.636642 0.608013
v 0.462834 0.647213 0.606673
v 0.429833 0.647868 0.611267
v 0.429810 0.637297 0.612606
v 0.429834 0.647285 0.606663
v 0.429811 0.636714 0.608003
v 0.462854 0.652568 0.580387
v 0.462835 0.642892 0.575921
v 0.462848 0.650622 0.584601
v 0.462828 0.640946 0.580134
v 0.429834 0.642964 0.575911
v 0.429853 0.652640 0.580376
v 0.429828 0.641019 0.580124
v 0.429848 0.650694 0.584590
v 0.459375 0.660977 0.553045
v 0.459317 0.647566 0.639878
v 0.459375 0.661180 0.553077
v 0.459318 0.647769 0.639910
v 0.433331 0.647622 0.639869
v 0.433387 0.661034 0.553037
v 0.433331 0.647826 0.639902
v 0.433388 0.661237 0.553068
v 0.460622 -1.125600 0.272873
v 0.460561 -1.140291 0.367994
v 0.460689 -1.094176 0.277726
v 0.460628 -1.108867 0.372848
v 0.424468 -1.140212 0.367983
v 0.424530 -1.125521 0.272861
v 0.424535 -1.108789 0.372836
v 0.424597 -1.094098 0.277714
v 0.460689 -1.094176 0.277726
v 0.460681 -1.096276 0.291315
v 0.460793 -1.045765 0.285203
v 0.460784 -1.047863 0.298791
v 0.424588 -1.096195 0.291303
v 0.424597 -1.094098 0.277714
v 0.424691 -1.047785 0.298780
v 0.424700 -1.045686 0.285191
v 0.460636 -1.106767 0.359259
v 0.460628 -1.108867 0.372848
v 0.460740 -1.058357 0.366736
v 0.460731 -1.060456 0.380324
v 0.424535 -1.108789 0.372836
v 0.424543 -1.106690 0.359248
v 0.424638 -1.060378 0.380313
v 0.424646 -1.058279 0.366724
v 0.460746 -1.143081 0.311737
v 0.460736 -1.145233 0.325667
v 0.460771 -1.130852 0.313627
v 0.460761 -1.133002 0.327555
v 0.424298 -1.145152 0.325655
v 0.424307 -1.143001 0.311726
v 0.424324 -1.132923 0.327544
v 0.424333 -1.130772 0.313615
v 0.460694 -1.132991 0.324053
v 0.460667 -1.145151 0.325432
v 0.460691 -1.128126 0.366953
v 0.460664 -1.140285 0.368331
v 0.424367 -1.145072 0.325420
v 0.424394 -1.132912 0.324041
v 0.424364 -1.140206 0.368320
v 0.424391 -1.128047 0.366941
v 0.460676 -1.143074 0.311985
v 0.460699 -1.131896 0.316969
v 0.460727 -1.125492 0.272552
v 0.460750 -1.114315 0.277536
v 0.424399 -1.131817 0.316958
v 0.424376 -1.142994 0.311974
v 0.424450 -1.114236 0.277525
v 0.424427 -1.125412 0.272541
v 0.460733 -1.059931 0.376927
v 0.460731 -1.060456 0.380324
v 0.460771 -1.042096 0.379682
v 0.460768 -1.042621 0.383079
v 0.424638 -1.060378 0.380313
v 0.424640 -1.059853 0.376916
v 0.424676 -1.042542 0.383067
v 0.424678 -1.042017 0.379670
v 0.460793 -1.045765 0.285203
v 0.460790 -1.046290 0.288600
v 0.460831 -1.027930 0.287957
v 0.460828 -1.028455 0.291354
v 0.424698 -1.046211 0.288588
v 0.424700 -1.045686 0.285191
v 0.424736 -1.028376 0.291343
v 0.424738 -1.027852 0.287945
v 0.460643 -1.105194 0.349068
v 0.460638 -1.106375 0.356711
v 0.460681 -1.087360 0.351822
v 0.460676 -1.088540 0.359466
v 0.424545 -1.106296 0.356699
v 0.424551 -1.105116 0.349056
v 0.424583 -1.088462 0.359454
v 0.424588 -1.087281 0.351810
v 0.460679 -1.096668 0.293863
v 0.460675 -1.097848 0.301506
v 0.460718 -1.078832 0.296617
v 0.460713 -1.080013 0.304260
v 0.424581 -1.097770 0.301495
v 0.424586 -1.096590 0.293851
v 0.424619 -1.079935 0.304249
v 0.424624 -1.078753 0.296606
v 0.460785 -1.087179 0.350835
v 0.460763 -1.096695 0.355318
v 0.460795 -1.081232 0.363462
v 0.460771 -1.090748 0.367944
v 0.424463 -1.096616 0.355306
v 0.424486 -1.087100 0.350824
v 0.424472 -1.090670 0.367932
v 0.424494 -1.081154 0.363450
v 0.460801 -1.087859 0.298112
v 0.460815 -1.080140 0.305256
v 0.460824 -1.078381 0.287868
v 0.460839 -1.070661 0.295012
v 0.424515 -1.080060 0.305245
v 0.424500 -1.087780 0.298100
v 0.424539 -1.070582 0.295000
v 0.424525 -1.078302 0.287856
v 0.460725 -1.121111 0.306180
v 0.460728 -1.118173 0.316280
v 0.460813 -1.082955 0.295080
v 0.460816 -1.080017 0.305181
v 0.424429 -1.118094 0.316268
v 0.424426 -1.121032 0.306168
v 0.424515 -1.079938 0.305169
v 0.424512 -1.082876 0.295069
v 0.460720 -1.120114 0.328851
v 0.460705 -1.125963 0.337593
v 0.460786 -1.087085 0.350944
v 0.460770 -1.092933 0.359687
v 0.424405 -1.125883 0.337581
v 0.424421 -1.120034 0.328839
v 0.424470 -1.092854 0.359675
v 0.424485 -1.087006 0.350933
v 0.460846 -1.067226 0.295801
v 0.460861 -1.058980 0.307060
v 0.460873 -1.055966 0.287555
v 0.460888 -1.047721 0.298813
v 0.424562 -1.058900 0.307048
v 0.424546 -1.067146 0.295789
v 0.424587 -1.047642 0.298802
v 0.424574 -1.055887 0.287543
v 0.460802 -1.077720 0.363745
v 0.460815 -1.069473 0.375004
v 0.460830 -1.066461 0.355499
v 0.460843 -1.058213 0.366758
v 0.424516 -1.069394 0.374993
v 0.424502 -1.077641 0.363734
v 0.424543 -1.058134 0.366746
v 0.424529 -1.066382 0.355488
v 0.460781 -1.049765 0.295741
v 0.460782 -1.048549 0.298955
v 0.460827 -1.029670 0.288139
v 0.460828 -1.028455 0.291354
v 0.424690 -1.048471 0.298944
v 0.424688 -1.049687 0.295729
v 0.424736 -1.028376 0.291343
v 0.424733 -1.029592 0.288127
v 0.460739 -1.058961 0.366373
v 0.460732 -1.061091 0.369071
v 0.460771 -1.042096 0.379683
v 0.460766 -1.044226 0.382381
v 0.424640 -1.061013 0.369059
v 0.424645 -1.058883 0.366361
v 0.424672 -1.044147 0.382369
v 0.424678 -1.042017 0.379671
v 0.460735 -1.059407 0.373530
v 0.460733 -1.059931 0.376927
v 0.460759 -1.048365 0.375235
v 0.460757 -1.048890 0.378633
v 0.424640 -1.059853 0.376916
v 0.424642 -1.059328 0.373519
v 0.424663 -1.048813 0.378621
v 0.424666 -1.048288 0.375224
v 0.460737 -1.058881 0.370133
v 0.460735 -1.059407 0.373530
v 0.460748 -1.053786 0.370920
v 0.460746 -1.054312 0.374317
v 0.424642 -1.059328 0.373519
v 0.424644 -1.058803 0.370121
v 0.424654 -1.054233 0.374306
v 0.424656 -1.053708 0.370909
v 0.460790 -1.046290 0.288600
v 0.460789 -1.046815 0.291997
v 0.460815 -1.035248 0.290305
v 0.460812 -1.035775 0.293702
v 0.424696 -1.046736 0.291985
v 0.424698 -1.046211 0.288588
v 0.424719 -1.035696 0.293691
v 0.424721 -1.035171 0.290294
v 0.460789 -1.046815 0.291997
v 0.460787 -1.047339 0.295394
v 0.460800 -1.041718 0.292784
v 0.460797 -1.042243 0.296181
v 0.424693 -1.047261 0.295383
v 0.424696 -1.046736 0.291985
v 0.424704 -1.042165 0.296170
v 0.424706 -1.041640 0.292773
v 0.460772 -1.099565 0.310684
v 0.460731 -1.116371 0.322993
v 0.460792 -1.087257 0.327489
v 0.460751 -1.104061 0.339799
v 0.424430 -1.116292 0.322981
v 0.424470 -1.099486 0.310673
v 0.424452 -1.103982 0.339787
v 0.424493 -1.087177 0.327478
v 0.460638 -1.106375 0.356711
v 0.460636 -1.106767 0.359259
v 0.460676 -1.088540 0.359466
v 0.460675 -1.088932 0.362013
v 0.424543 -1.106690 0.359248
v 0.424545 -1.106296 0.356699
v 0.424581 -1.088854 0.362002
v 0.424583 -1.088462 0.359454
v 0.460681 -1.096276 0.291315
v 0.460679 -1.096668 0.293863
v 0.460719 -1.078440 0.294069
v 0.460718 -1.078832 0.296617
v 0.424586 -1.096590 0.293851
v 0.424588 -1.096195 0.291303
v 0.424624 -1.078753 0.296606
v 0.424626 -1.078361 0.294057
v 0.464575 0.326575 0.498027
v 0.464522 0.313852 0.580410
v 0.464619 0.346960 0.501175
v 0.464565 0.334235 0.583558
v 0.426710 0.313934 0.580398
v 0.426764 0.326658 0.498015
v 0.426753 0.334317 0.583546
v 0.426807 0.347042 0.501163
v 0.464467 0.275616 0.490157
v 0.464414 0.262893 0.572540
v 0.464511 0.296000 0.493305
v 0.464456 0.283277 0.575688
v 0.426601 0.262976 0.572528
v 0.426654 0.275699 0.490145
v 0.426644 0.283360 0.575676
v 0.426698 0.296083 0.493293
v 0.464414 0.262893 0.572540
v 0.464404 0.260795 0.586129
v 0.464565 0.334235 0.583558
v 0.464557 0.332136 0.597147
v 0.426592 0.260877 0.586117
v 0.426601 0.262976 0.572528
v 0.426744 0.332218 0.597135
v 0.426753 0.334317 0.583546
v 0.454109 0.268032 0.584457
v 0.454103 0.266982 0.591251
v 0.454231 0.325784 0.593377
v 0.454227 0.324734 0.600171
v 0.436916 0.267020 0.591246
v 0.436920 0.268069 0.584451
v 0.437040 0.324772 0.600166
v 0.437043 0.325821 0.593371
v 0.450673 0.270222 0.590362
v 0.450672 0.271315 0.602344
v 0.450689 0.277068 0.589738
v 0.450687 0.278163 0.601718
v 0.440360 0.271339 0.602341
v 0.440361 0.270244 0.590359
v 0.440375 0.278184 0.601715
v 0.440376 0.277091 0.589734
v 0.450771 0.315590 0.595687
v 0.450757 0.310932 0.606780
v 0.450784 0.321929 0.598349
v 0.450770 0.317271 0.609442
v 0.440445 0.310954 0.606776
v 0.440457 0.315613 0.595683
v 0.440457 0.317293 0.609439
v 0.440471 0.321952 0.598346
v 0.450867 0.313432 0.603613
v 0.450845 0.304733 0.609529
v 0.450873 0.317413 0.609469
v 0.450852 0.308716 0.615385
v 0.440328 0.304756 0.609526
v 0.440349 0.313454 0.603609
v 0.440334 0.308739 0.615381
v 0.440355 0.317436 0.609466
v 0.450775 0.271171 0.602327
v 0.450787 0.277678 0.610590
v 0.450788 0.276735 0.597946
v 0.450799 0.283243 0.606209
v 0.440268 0.277702 0.610587
v 0.440257 0.271195 0.602324
v 0.440282 0.283265 0.606206
v 0.440270 0.276757 0.597942
v 0.450688 0.279004 0.603540
v 0.450684 0.277955 0.610336
v 0.450754 0.309579 0.608263
v 0.450749 0.308530 0.615057
v 0.440371 0.277977 0.610332
v 0.440376 0.279027 0.603537
v 0.440437 0.308552 0.615054
v 0.440441 0.309602 0.608259
v 0.450037 -0.026745 0.556319
v 0.450033 -0.027794 0.563113
v 0.450102 0.003831 0.561041
v 0.450099 0.002781 0.567835
v 0.439721 -0.027770 0.563110
v 0.439724 -0.026721 0.556315
v 0.439785 0.002804 0.567832
v 0.439790 0.003853 0.561038
v 0.444758 -0.089916 0.511413
v 0.444687 -0.106574 0.619275
v 0.445764 0.382297 0.584344
v 0.445692 0.365637 0.692206
v 0.444687 -0.106574 0.619275
v 0.444758 -0.089916 0.511413
v 0.445692 0.365637 0.692206
v 0.445764 0.382297 0.584344
v 0.457696 0.275939 0.487490
v 0.457694 0.275384 0.491090
v 0.457849 0.347485 0.498539
v 0.457847 0.346929 0.502141
v 0.433426 0.275437 0.491082
v 0.433429 0.275992 0.487482
v 0.433578 0.346981 0.502133
v 0.433581 0.347537 0.498531
v 0.463925 0.020826 0.450805
v 0.463871 0.008103 0.533187
v 0.463968 0.041209 0.453953
v 0.463913 0.028486 0.536336
v 0.426058 0.008186 0.533175
v 0.426111 0.020909 0.450793
v 0.426101 0.028569 0.536324
v 0.426156 0.041292 0.453941
v 0.463816 -0.030131 0.442935
v 0.463762 -0.042856 0.525317
v 0.463860 -0.009747 0.446083
v 0.463805 -0.022472 0.528466
v 0.425950 -0.042773 0.525305
v 0.426004 -0.030049 0.442923
v 0.425993 -0.022389 0.528454
v 0.426048 -0.009665 0.446071
v 0.463762 -0.042856 0.525317
v 0.463753 -0.044955 0.538907
v 0.463913 0.028486 0.536336
v 0.463905 0.026387 0.549925
v 0.425941 -0.044872 0.538895
v 0.425950 -0.042773 0.525305
v 0.426093 0.026470 0.549913
v 0.426101 0.028569 0.536324
v 0.453456 -0.037719 0.537235
v 0.453452 -0.038768 0.544029
v 0.453580 0.020034 0.546154
v 0.453575 0.018985 0.552948
v 0.436265 -0.038730 0.544024
v 0.436270 -0.037681 0.537229
v 0.436388 0.019023 0.552943
v 0.436393 0.020072 0.546149
v 0.450023 -0.035528 0.543141
v 0.450020 -0.034433 0.555121
v 0.450037 -0.028682 0.542515
v 0.450036 -0.027588 0.554496
v 0.439708 -0.034411 0.555118
v 0.439710 -0.035505 0.543137
v 0.439723 -0.027563 0.554493
v 0.439725 -0.028659 0.542511
v 0.450119 0.009841 0.548465
v 0.450106 0.005183 0.559558
v 0.450132 0.016180 0.551126
v 0.450119 0.011521 0.562220
v 0.439793 0.005205 0.559555
v 0.439807 0.009864 0.548462
v 0.439806 0.011544 0.562217
v 0.439820 0.016202 0.551123
v 0.450214 0.007682 0.556391
v 0.450194 -0.001015 0.562307
v 0.450222 0.011666 0.562246
v 0.450201 0.002967 0.568162
v 0.439676 -0.000992 0.562303
v 0.439696 0.007705 0.556388
v 0.439683 0.002989 0.568159
v 0.439704 0.011688 0.562243
v 0.450123 -0.034579 0.555104
v 0.450135 -0.028070 0.563368
v 0.450137 -0.029015 0.550723
v 0.450149 -0.022508 0.558987
v 0.439617 -0.028048 0.563364
v 0.439606 -0.034556 0.555101
v 0.439629 -0.022485 0.558984
v 0.439619 -0.028991 0.550720
v 0.457045 -0.029809 0.440268
v 0.457043 -0.030366 0.443868
v 0.457199 0.041736 0.451317
v 0.457195 0.041180 0.454919
v 0.432775 -0.030313 0.443861
v 0.432777 -0.029757 0.440260
v 0.432928 0.041233 0.454911
v 0.432929 0.041789 0.451310
vn -0.0007 -0.1526 0.9883
vn 1.0000 -0.0022 0.0003
vn 0.0007 0.1526 -0.9883
vn -1.0000 0.0022 -0.0003
vn -0.0021 -0.9883 -0.1526
vn 0.0021 0.9883 0.1526
vn 0.0020 0.9468 0.3219
vn -0.0020 -0.9468 -0.3219
vn -0.0010 -0.3219 0.9468
vn 0.0010 0.3219 -0.9468
vn 0.0022 0.9921 -0.1257
vn 1.0000 -0.0022 0.0004
vn -0.0022 -0.9921 0.1257
vn -0.0001 0.1258 0.9921
vn -0.0000 -0.1257 -0.9921
vn 0.0022 0.9602 -0.2794
vn 1.0000 -0.0021 0.0003
vn -0.0022 -0.9602 0.2793
vn 0.0003 0.2793 0.9602
vn -0.0003 -0.2793 -0.9602
vn -0.0007 -0.1527 0.9883
vn 0.0007 0.1527 -0.9883
vn -0.0021 -0.9883 -0.1527
vn 0.0021 0.9883 0.1527
vn -0.0016 -0.8312 -0.5560
vn 0.0016 0.8312 0.5560
vn -1.0000 0.0022 -0.0004
vn 0.0015 0.5560 -0.8312
vn -0.0015 -0.5559 0.8312
vn -0.0018 -0.9079 -0.4191
vn 0.0018 0.9080 0.4191
vn -1.0000 0.0021 -0.0003
vn 0.0012 0.4191 -0.9079
vn -0.0012 -0.4190 0.9080
vn -0.0022 -0.9998 0.0213
vn 0.0022 0.9998 -0.0214
vn 0.0003 -0.0213 -0.9998
vn -0.0003 0.0213 0.9998
vn -0.0014 -0.4967 0.8679
vn 1.0000 -0.0023 0.0005
vn 0.0014 0.4967 -0.8679
vn -0.0017 -0.8680 -0.4966
vn 0.0017 0.8679 0.4967
vn 0.0001 0.1945 0.9809
vn 1.0000 -0.0021 0.0005
vn -0.0001 -0.1945 -0.9809
vn -1.0000 0.0022 -0.0005
vn -0.0022 -0.9809 0.1945
vn 0.0022 0.9809 -0.1944
vn -0.0006 -0.1526 0.9883
vn 1.0000 -0.0021 0.0004
vn -0.0021 -0.9883 -0.1528
vn -0.0006 -0.1527 0.9883
vn 1.0000 -0.0022 0.0005
vn -1.0000 0.0022 -0.0002
vn -0.0021 -0.9883 -0.1525
vn 0.0006 0.1527 -0.9883
vn 0.0006 0.1526 -0.9883
vn -1.0000 0.0021 -0.0004
vn 0.0020 0.9883 0.1528
vn 1.0000 -0.0021 0.0002
vn 0.0022 0.9998 -0.0212
vn 0.0020 0.9467 0.3220
vn 1.0000 -0.0023 0.0004
vn -0.0020 -0.9467 -0.3221
vn 0.0010 0.3220 -0.9468
vn 0.0022 0.9921 -0.1258
vn 1.0000 -0.0022 0.0001
vn -0.0022 -0.9921 0.1256
vn -0.0000 0.1257 0.9921
vn -0.0000 -0.1258 -0.9921
vn -0.0019 -0.9079 -0.4193
vn 0.0019 0.9079 0.4192
vn 0.0012 0.4190 -0.9080
vn -0.0012 -0.4191 0.9079
vn -0.0006 -0.1537 0.9881
vn 1.0000 -0.0027 0.0002
vn 0.0006 0.1523 -0.9883
vn -1.0000 0.0027 -0.0003
vn -0.0022 -0.9936 0.1127
vn 0.0022 0.9936 -0.1127
vn 0.0001 -0.1127 -0.9936
vn -0.0001 0.1127 0.9936
vn 0.0019 0.9133 0.4072
vn -0.0019 -0.9133 -0.4072
vn -0.0012 -0.4073 0.9133
vn 0.0012 0.4073 -0.9133
vn 0.0021 0.9882 0.1528
vn 0.0021 0.9883 0.1525
vn 0.0021 0.9883 0.1528
vn -0.0021 -0.9047 0.4260
vn 0.0021 0.9047 -0.4261
vn -0.0006 -0.4261 -0.9047
vn 0.0006 0.4261 0.9047
vn 0.0014 0.7340 0.6791
vn -0.0014 -0.7340 -0.6791
vn -0.0017 -0.6792 0.7339
vn 0.0017 0.6792 -0.7340
vn 0.0022 0.9602 -0.2793
vn -0.0015 -0.5560 0.8312
vn -0.0016 -0.8311 -0.5561
vn 0.0010 0.5909 0.8068
vn -0.0010 -0.5908 -0.8068
vn -0.0020 -0.8068 0.5909
vn 0.0019 0.8068 -0.5908
vn -0.0019 -0.8067 0.5909
vn 0.0019 0.8067 -0.5909
vn 0.0005 0.3538 0.9353
vn -0.0005 -0.3538 -0.9353
vn -1.0000 0.0022 -0.0001
vn -0.0021 -0.9353 0.3538
vn 0.0021 0.9354 -0.3536
vn -0.0016 -0.6195 0.7850
vn 0.0016 0.6195 -0.7850
vn -0.0015 -0.7849 -0.6196
vn 0.0016 0.7852 0.6193
vn 1.0000 -0.0022 0.0002
vn 0.0021 0.9882 0.1531
vn -1.0000 0.0024 -0.0003
vn 0.0021 0.9882 0.1530
vn -0.0020 -0.8067 0.5909
vn -0.0010 -0.5909 -0.8068
vn 0.0010 0.5909 0.8067
vn -1.0000 0.0023 -0.0003
vn 0.0021 0.9884 0.1521
vn -1.0000 0.0023 -0.0004
vn -0.0001 0.0911 0.9958
vn 0.0001 -0.0908 -0.9959
vn -0.0022 -0.9959 0.0909
vn 0.0022 0.9959 -0.0910
vn -0.0011 -0.3872 0.9220
vn 0.0012 0.3872 -0.9220
vn -0.0019 -0.9220 -0.3872
vn 0.0019 0.9220 0.3872
vn -0.0020 -0.8269 0.5624
vn 0.0020 0.8269 -0.5623
vn -0.0009 -0.5624 -0.8268
vn 0.0010 0.5624 0.8269
vn 0.0011 0.6187 0.7856
vn -0.0011 -0.6187 -0.7856
vn -0.0020 -0.7856 0.6187
vn 0.0019 0.7856 -0.6187
vn -0.0022 -0.9883 -0.1526
vn -0.0000 -0.0000 1.0000
vn 0.1794 -0.7381 0.6504
vn 0.1774 0.4957 0.8502
vn -0.0817 -0.7734 -0.6287
vn -0.1859 0.8388 -0.5116
vn 0.6045 -0.6132 -0.5086
vn -0.0000 -0.0000 -1.0000
vn -0.2883 0.5070 -0.8123
vn 0.2257 0.5219 -0.8226
vn -0.5904 -0.6484 -0.4807
vn -0.0021 -0.9883 -0.1524
vn -0.0001 0.0909 0.9959
vn 0.0002 -0.0911 -0.9958
vn -0.0022 -0.9959 0.0910
vn 0.0023 0.9958 -0.0910
vn 0.0011 0.3871 -0.9220
vn -0.0018 -0.9220 -0.3872
vn -0.0020 -0.8269 0.5623
vn 0.0019 0.8268 -0.5625
vn -0.0010 -0.5624 -0.8269
vn 0.0009 0.5624 0.8269
vn -0.0012 -0.6186 -0.7857
vn -1.0000 0.0020 -0.0003
vn -0.0019 -0.7856 0.6187
vn 0.0019 0.7857 -0.6186
vt 0.187500 0.195312
vt 0.203125 0.195312
vt 0.203125 1.000000
vt 0.187500 1.000000
vt 0.000000 0.195312
vt 0.039062 0.195312
vt 0.039062 1.000000
vt 0.000000 1.000000
vt 0.218750 0.195312
vt 0.218750 1.000000
vt 0.046875 0.195312
vt 0.085938 0.195312
vt 0.085938 1.000000
vt 0.046875 1.000000
vt 0.406250 0.812500
vt 0.390625 0.812500
vt 0.390625 0.773438
vt 0.406250 0.773438
vt 0.406250 0.726562
vt 0.390625 0.726562
vt 0.390625 0.765625
vt 0.406250 0.765625
vt 0.640625 0.976562
vt 0.656250 0.976562
vt 0.656250 0.984375
vt 0.640625 0.984375
vt 0.390625 0.273438
vt 0.398438 0.273438
vt 0.398438 0.281250
vt 0.390625 0.281250
vt 0.640625 0.960938
vt 0.656250 0.960938
vt 0.656250 0.968750
vt 0.640625 0.968750
vt 0.718750 0.601562
vt 0.726562 0.601562
vt 0.726562 0.609375
vt 0.718750 0.609375
vt 0.656250 0.953125
vt 0.640625 0.953125
vt 0.640625 0.945312
vt 0.656250 0.945312
vt 0.656250 0.929688
vt 0.640625 0.929688
vt 0.640625 0.937500
vt 0.656250 0.937500
vt 0.640625 0.914062
vt 0.656250 0.914062
vt 0.656250 0.921875
vt 0.640625 0.921875
vt 0.406250 0.273438
vt 0.414062 0.273438
vt 0.414062 0.281250
vt 0.406250 0.281250
vt 0.640625 0.898438
vt 0.656250 0.898438
vt 0.656250 0.906250
vt 0.640625 0.906250
vt 0.718750 0.585938
vt 0.726562 0.585938
vt 0.726562 0.593750
vt 0.718750 0.593750
vt 0.656250 0.890625
vt 0.640625 0.890625
vt 0.640625 0.882812
vt 0.656250 0.882812
vt 0.656250 0.867188
vt 0.640625 0.867188
vt 0.640625 0.875000
vt 0.656250 0.875000
vt 0.640625 0.851562
vt 0.656250 0.851562
vt 0.656250 0.859375
vt 0.640625 0.859375
vt 0.421875 0.273438
vt 0.429688 0.273438
vt 0.429688 0.281250
vt 0.421875 0.281250
vt 0.640625 0.835938
vt 0.656250 0.835938
vt 0.656250 0.843750
vt 0.640625 0.843750
vt 0.718750 0.570312
vt 0.726562 0.570312
vt 0.726562 0.578125
vt 0.718750 0.578125
vt 0.656250 0.828125
vt 0.640625 0.828125
vt 0.640625 0.820312
vt 0.656250 0.820312
vt 0.656250 0.804688
vt 0.640625 0.804688
vt 0.640625 0.812500
vt 0.656250 0.812500
vt 0.640625 0.789062
vt 0.656250 0.789062
vt 0.656250 0.796875
vt 0.640625 0.796875
vt 0.437500 0.273438
vt 0.453125 0.273438
vt 0.453125 0.281250
vt 0.437500 0.281250
vt 0.640625 0.773438
vt 0.656250 0.773438
vt 0.656250 0.781250
vt 0.640625 0.781250
vt 0.718750 0.554688
vt 0.734375 0.554688
vt 0.734375 0.562500
vt 0.718750 0.562500
vt 0.656250 0.765625
vt 0.640625 0.765625
vt 0.640625 0.757812
vt 0.656250 0.757812
vt 0.656250 0.742188
vt 0.640625 0.742188
vt 0.640625 0.750000
vt 0.656250 0.750000
vt 0.640625 0.726562
vt 0.656250 0.726562
vt 0.656250 0.734375
vt 0.640625 0.734375
vt 0.460938 0.273438
vt 0.460938 0.281250
vt 0.640625 0.710938
vt 0.656250 0.710938
vt 0.656250 0.718750
vt 0.640625 0.718750
vt 0.718750 0.539062
vt 0.726562 0.539062
vt 0.726562 0.546875
vt 0.718750 0.546875
vt 0.656250 0.703125
vt 0.640625 0.703125
vt 0.640625 0.695312
vt 0.656250 0.695312
vt 0.656250 0.679688
vt 0.640625 0.679688
vt 0.640625 0.687500
vt 0.656250 0.687500
vt 0.640625 0.664062
vt 0.656250 0.664062
vt 0.656250 0.671875
vt 0.640625 0.671875
vt 0.468750 0.273438
vt 0.476562 0.273438
vt 0.476562 0.281250
vt 0.468750 0.281250
vt 0.640625 0.648438
vt 0.656250 0.648438
vt 0.656250 0.656250
vt 0.640625 0.656250
vt 0.718750 0.523438
vt 0.726562 0.523438
vt 0.726562 0.531250
vt 0.718750 0.531250
vt 0.656250 0.640625
vt 0.640625 0.640625
vt 0.640625 0.632812
vt 0.656250 0.632812
vt 0.656250 0.617188
vt 0.640625 0.617188
vt 0.640625 0.625000
vt 0.656250 0.625000
vt 0.640625 0.601562
vt 0.656250 0.601562
vt 0.656250 0.609375
vt 0.640625 0.609375
vt 0.484375 0.273438
vt 0.492188 0.273438
vt 0.492188 0.281250
vt 0.484375 0.281250
vt 0.640625 0.585938
vt 0.656250 0.585938
vt 0.656250 0.593750
vt 0.640625 0.593750
vt 0.718750 0.507812
vt 0.726562 0.507812
vt 0.726562 0.515625
vt 0.718750 0.515625
vt 0.656250 0.578125
vt 0.640625 0.578125
vt 0.640625 0.570312
vt 0.656250 0.570312
vt 0.453125 0.351562
vt 0.437500 0.351562
vt 0.437500 0.359375
vt 0.453125 0.359375
vt 0.640625 0.554688
vt 0.656250 0.554688
vt 0.656250 0.562500
vt 0.640625 0.562500
vt 0.500000 0.273438
vt 0.507812 0.273438
vt 0.507812 0.281250
vt 0.500000 0.281250
vt 0.468750 0.351562
vt 0.468750 0.359375
vt 0.718750 0.492188
vt 0.726562 0.492188
vt 0.726562 0.500000
vt 0.718750 0.500000
vt 0.656250 0.546875
vt 0.640625 0.546875
vt 0.640625 0.539062
vt 0.656250 0.539062
vt 0.484375 0.351562
vt 0.484375 0.359375
vt 0.640625 0.523438
vt 0.656250 0.523438
vt 0.656250 0.531250
vt 0.640625 0.531250
vt 0.515625 0.273438
vt 0.523438 0.273438
vt 0.523438 0.281250
vt 0.515625 0.281250
vt 0.500000 0.351562
vt 0.500000 0.359375
vt 0.718750 0.476562
vt 0.726562 0.476562
vt 0.726562 0.484375
vt 0.718750 0.484375
vt 0.656250 0.515625
vt 0.640625 0.515625
vt 0.640625 0.507812
vt 0.656250 0.507812
vt 0.515625 0.351562
vt 0.515625 0.359375
vt 0.640625 0.492188
vt 0.656250 0.492188
vt 0.656250 0.500000
vt 0.640625 0.500000
vt 0.531250 0.273438
vt 0.546875 0.273438
vt 0.546875 0.281250
vt 0.531250 0.281250
vt 0.531250 0.351562
vt 0.531250 0.359375
vt 0.718750 0.460938
vt 0.734375 0.460938
vt 0.734375 0.468750
vt 0.718750 0.468750
vt 0.656250 0.484375
vt 0.640625 0.484375
vt 0.640625 0.476562
vt 0.656250 0.476562
vt 0.546875 0.351562
vt 0.546875 0.359375
vt 0.640625 0.460938
vt 0.656250 0.460938
vt 0.656250 0.468750
vt 0.640625 0.468750
vt 0.554688 0.273438
vt 0.554688 0.281250
vt 0.562500 0.351562
vt 0.562500 0.359375
vt 0.718750 0.445312
vt 0.726562 0.445312
vt 0.726562 0.453125
vt 0.718750 0.453125
vt 0.656250 0.453125
vt 0.640625 0.453125
vt 0.640625 0.445312
vt 0.656250 0.445312
vt 0.578125 0.351562
vt 0.578125 0.359375
vt 0.640625 0.429688
vt 0.656250 0.429688
vt 0.656250 0.437500
vt 0.640625 0.437500
vt 0.421875 0.773438
vt 0.468750 0.773438
vt 0.468750 0.781250
vt 0.421875 0.781250
vt 0.593750 0.351562
vt 0.593750 0.359375
vt 0.421875 0.710938
vt 0.468750 0.710938
vt 0.468750 0.718750
vt 0.421875 0.718750
vt 0.375000 0.718750
vt 0.359375 0.718750
vt 0.359375 0.671875
vt 0.375000 0.671875
vt 0.375000 0.625000
vt 0.359375 0.625000
vt 0.640625 0.414062
vt 0.656250 0.414062
vt 0.656250 0.421875
vt 0.640625 0.421875
vt 0.734375 0.570312
vt 0.742188 0.570312
vt 0.742188 0.578125
vt 0.734375 0.578125
vt 0.609375 0.351562
vt 0.609375 0.359375
vt 0.437500 0.257812
vt 0.445312 0.257812
vt 0.445312 0.265625
vt 0.437500 0.265625
vt 0.656250 0.406250
vt 0.640625 0.406250
vt 0.640625 0.398438
vt 0.656250 0.398438
vt 0.625000 0.351562
vt 0.625000 0.359375
vt 0.765625 0.679688
vt 0.781250 0.679688
vt 0.781250 0.687500
vt 0.765625 0.687500
vt 0.765625 0.601562
vt 0.773438 0.601562
vt 0.773438 0.609375
vt 0.765625 0.609375
vt 0.328125 0.226562
vt 0.343750 0.226562
vt 0.343750 0.234375
vt 0.328125 0.234375
vt 0.406250 0.226562
vt 0.414062 0.226562
vt 0.414062 0.234375
vt 0.406250 0.234375
vt 0.781250 0.671875
vt 0.765625 0.671875
vt 0.765625 0.664062
vt 0.781250 0.664062
vt 0.359375 0.226562
vt 0.359375 0.234375
vt 0.765625 0.710938
vt 0.781250 0.710938
vt 0.781250 0.718750
vt 0.765625 0.718750
vt 0.765625 0.617188
vt 0.773438 0.617188
vt 0.773438 0.625000
vt 0.765625 0.625000
vt 0.296875 0.226562
vt 0.312500 0.226562
vt 0.312500 0.234375
vt 0.296875 0.234375
vt 0.390625 0.226562
vt 0.398438 0.226562
vt 0.398438 0.234375
vt 0.390625 0.234375
vt 0.781250 0.703125
vt 0.765625 0.703125
vt 0.765625 0.695312
vt 0.781250 0.695312
vt 0.765625 0.742188
vt 0.781250 0.742188
vt 0.781250 0.750000
vt 0.765625 0.750000
vt 0.765625 0.632812
vt 0.773438 0.632812
vt 0.773438 0.640625
vt 0.765625 0.640625
vt 0.265625 0.226562
vt 0.281250 0.226562
vt 0.281250 0.234375
vt 0.265625 0.234375
vt 0.375000 0.226562
vt 0.382812 0.226562
vt 0.382812 0.234375
vt 0.375000 0.234375
vt 0.781250 0.734375
vt 0.765625 0.734375
vt 0.765625 0.726562
vt 0.781250 0.726562
vt 0.765625 0.773438
vt 0.781250 0.773438
vt 0.781250 0.781250
vt 0.765625 0.781250
vt 0.765625 0.648438
vt 0.773438 0.648438
vt 0.773438 0.656250
vt 0.765625 0.656250
vt 0.234375 0.226562
vt 0.250000 0.226562
vt 0.250000 0.234375
vt 0.234375 0.234375
vt 0.367188 0.226562
vt 0.367188 0.234375
vt 0.781250 0.765625
vt 0.765625 0.765625
vt 0.765625 0.757812
vt 0.781250 0.757812
vt 0.671875 0.726562
vt 0.687500 0.726562
vt 0.687500 0.734375
vt 0.671875 0.734375
vt 0.750000 0.460938
vt 0.789062 0.460938
vt 0.789062 0.468750
vt 0.750000 0.468750
vt 0.281250 0.320312
vt 0.296875 0.320312
vt 0.296875 0.328125
vt 0.281250 0.328125
vt 0.421875 0.226562
vt 0.460938 0.226562
vt 0.460938 0.234375
vt 0.421875 0.234375
vt 0.546875 0.250000
vt 0.531250 0.250000
vt 0.531250 0.210938
vt 0.546875 0.210938
vt 0.781250 0.554688
vt 0.765625 0.554688
vt 0.765625 0.593750
vt 0.781250 0.593750
vt 0.421875 0.687500
vt 0.437500 0.687500
vt 0.437500 0.703125
vt 0.421875 0.703125
vt 0.375000 0.703125
vt 0.453125 0.562500
vt 0.468750 0.562500
vt 0.468750 0.578125
vt 0.453125 0.578125
vt 0.375000 0.687500
vt 0.390625 0.687500
vt 0.375000 0.640625
vt 0.390625 0.640625
vt 0.375000 0.578125
vt 0.359375 0.578125
vt 0.359375 0.554688
vt 0.375000 0.554688
vt 0.625000 0.976562
vt 0.632812 0.976562
vt 0.632812 1.000000
vt 0.625000 1.000000
vt 0.421875 0.617188
vt 0.437500 0.617188
vt 0.437500 0.640625
vt 0.421875 0.640625
vt 0.625000 0.945312
vt 0.632812 0.945312
vt 0.632812 0.968750
vt 0.625000 0.968750
vt 0.671875 0.968750
vt 0.671875 0.960938
vt 0.671875 0.945312
vt 0.671875 0.953125
vt 0.406250 0.554688
vt 0.421875 0.554688
vt 0.421875 0.578125
vt 0.406250 0.578125
vt 0.625000 0.851562
vt 0.632812 0.851562
vt 0.632812 0.875000
vt 0.625000 0.875000
vt 0.437500 0.554688
vt 0.437500 0.578125
vt 0.625000 0.820312
vt 0.632812 0.820312
vt 0.632812 0.843750
vt 0.625000 0.843750
vt 0.671875 0.937500
vt 0.671875 0.929688
vt 0.671875 0.914062
vt 0.671875 0.921875
vt 0.671875 0.898438
vt 0.671875 0.906250
vt 0.750000 0.554688
vt 0.750000 0.562500
vt 0.671875 0.882812
vt 0.671875 0.890625
vt 0.453125 0.257812
vt 0.468750 0.257812
vt 0.468750 0.265625
vt 0.453125 0.265625
vt 0.671875 0.875000
vt 0.671875 0.867188
vt 0.671875 0.851562
vt 0.671875 0.859375
vt 0.437500 0.945312
vt 0.453125 0.945312
vt 0.453125 0.968750
vt 0.437500 0.968750
vt 0.218750 0.351562
vt 0.226562 0.351562
vt 0.226562 0.375000
vt 0.218750 0.375000
vt 0.437500 0.914062
vt 0.453125 0.914062
vt 0.453125 0.937500
vt 0.437500 0.937500
vt 0.234375 0.351562
vt 0.242188 0.351562
vt 0.242188 0.375000
vt 0.234375 0.375000
vt 0.671875 0.843750
vt 0.671875 0.835938
vt 0.671875 0.820312
vt 0.671875 0.828125
vt 0.437500 0.882812
vt 0.453125 0.882812
vt 0.453125 0.906250
vt 0.437500 0.906250
vt 0.250000 0.351562
vt 0.257812 0.351562
vt 0.257812 0.375000
vt 0.250000 0.375000
vt 0.437500 0.742188
vt 0.453125 0.742188
vt 0.453125 0.765625
vt 0.437500 0.765625
vt 0.265625 0.351562
vt 0.273438 0.351562
vt 0.273438 0.375000
vt 0.265625 0.375000
vt 0.671875 0.812500
vt 0.671875 0.804688
vt 0.671875 0.789062
vt 0.671875 0.796875
vt 0.218750 0.335938
vt 0.234375 0.335938
vt 0.234375 0.343750
vt 0.218750 0.343750
vt 0.734375 0.539062
vt 0.742188 0.539062
vt 0.742188 0.546875
vt 0.734375 0.546875
vt 0.671875 0.773438
vt 0.671875 0.781250
vt 0.476562 0.257812
vt 0.476562 0.265625
vt 0.250000 0.343750
vt 0.250000 0.335938
vt 0.671875 0.757812
vt 0.671875 0.765625
vt 0.265625 0.335938
vt 0.265625 0.343750
vt 0.734375 0.523438
vt 0.742188 0.523438
vt 0.742188 0.531250
vt 0.734375 0.531250
vt 0.671875 0.742188
vt 0.671875 0.750000
vt 0.484375 0.257812
vt 0.492188 0.257812
vt 0.492188 0.265625
vt 0.484375 0.265625
vt 0.281250 0.343750
vt 0.281250 0.335938
vt 0.671875 0.679688
vt 0.671875 0.687500
vt 0.734375 0.492188
vt 0.742188 0.492188
vt 0.742188 0.500000
vt 0.734375 0.500000
vt 0.671875 0.664062
vt 0.671875 0.671875
vt 0.515625 0.257812
vt 0.523438 0.257812
vt 0.523438 0.265625
vt 0.515625 0.265625
vt 0.359375 0.343750
vt 0.343750 0.343750
vt 0.343750 0.335938
vt 0.359375 0.335938
vt 0.671875 0.648438
vt 0.671875 0.656250
vt 0.375000 0.335938
vt 0.375000 0.343750
vt 0.734375 0.476562
vt 0.742188 0.476562
vt 0.742188 0.484375
vt 0.734375 0.484375
vt 0.671875 0.632812
vt 0.671875 0.640625
vt 0.531250 0.257812
vt 0.539062 0.257812
vt 0.539062 0.265625
vt 0.531250 0.265625
vt 0.390625 0.343750
vt 0.390625 0.335938
vt 0.671875 0.617188
vt 0.671875 0.625000
vt 0.406250 0.335938
vt 0.406250 0.343750
vt 0.742188 0.460938
vt 0.742188 0.468750
vt 0.671875 0.601562
vt 0.671875 0.609375
vt 0.546875 0.257812
vt 0.554688 0.257812
vt 0.554688 0.265625
vt 0.546875 0.265625
vt 0.421875 0.343750
vt 0.421875 0.335938
vt 0.671875 0.585938
vt 0.671875 0.593750
vt 0.437500 0.335938
vt 0.437500 0.343750
vt 0.734375 0.445312
vt 0.742188 0.445312
vt 0.742188 0.453125
vt 0.734375 0.453125
vt 0.671875 0.570312
vt 0.671875 0.578125
vt 0.562500 0.257812
vt 0.570312 0.257812
vt 0.570312 0.265625
vt 0.562500 0.265625
vt 0.453125 0.343750
vt 0.453125 0.335938
vt 0.671875 0.554688
vt 0.671875 0.562500
vt 0.375000 0.250000
vt 0.359375 0.250000
vt 0.765625 0.812500
vt 0.773438 0.812500
vt 0.773438 0.828125
vt 0.765625 0.828125
vt 0.750000 0.625000
vt 0.750000 0.640625
vt 0.765625 0.796875
vt 0.773438 0.796875
vt 0.781250 0.453125
vt 0.765625 0.453125
vt 0.765625 0.445312
vt 0.781250 0.445312
vt 0.578125 0.226562
vt 0.562500 0.226562
vt 0.562500 0.234375
vt 0.578125 0.234375
vt 0.390625 0.250000
vt 0.765625 0.421875
vt 0.773438 0.421875
vt 0.773438 0.437500
vt 0.765625 0.437500
vt 0.750000 0.609375
vt 0.578125 0.218750
vt 0.585938 0.218750
vt 0.585938 0.234375
vt 0.781250 0.421875
vt 0.765625 0.414062
vt 0.781250 0.414062
vt 0.609375 0.226562
vt 0.593750 0.226562
vt 0.593750 0.234375
vt 0.609375 0.234375
vt 0.515625 0.335938
vt 0.531250 0.335938
vt 0.531250 0.343750
vt 0.515625 0.343750
vt 0.734375 0.398438
vt 0.742188 0.398438
vt 0.742188 0.406250
vt 0.734375 0.406250
vt 0.671875 0.476562
vt 0.671875 0.484375
vt 0.609375 0.257812
vt 0.617188 0.257812
vt 0.617188 0.265625
vt 0.609375 0.265625
vt 0.546875 0.343750
vt 0.546875 0.335938
vt 0.671875 0.460938
vt 0.671875 0.468750
vt 0.562500 0.335938
vt 0.562500 0.343750
vt 0.734375 0.382812
vt 0.742188 0.382812
vt 0.742188 0.390625
vt 0.734375 0.390625
vt 0.671875 0.445312
vt 0.671875 0.453125
vt 0.625000 0.257812
vt 0.632812 0.257812
vt 0.632812 0.265625
vt 0.625000 0.265625
vt 0.578125 0.343750
vt 0.578125 0.335938
vt 0.671875 0.429688
vt 0.671875 0.437500
vt 0.593750 0.335938
vt 0.593750 0.343750
vt 0.734375 0.367188
vt 0.742188 0.367188
vt 0.742188 0.375000
vt 0.734375 0.375000
vt 0.671875 0.414062
vt 0.671875 0.421875
vt 0.640625 0.257812
vt 0.648438 0.257812
vt 0.648438 0.265625
vt 0.640625 0.265625
vt 0.609375 0.343750
vt 0.609375 0.335938
vt 0.671875 0.398438
vt 0.671875 0.406250
vt 0.625000 0.335938
vt 0.625000 0.343750
vt 0.734375 0.351562
vt 0.742188 0.351562
vt 0.742188 0.359375
vt 0.734375 0.359375
vt 0.656250 0.382812
vt 0.671875 0.382812
vt 0.671875 0.390625
vt 0.656250 0.390625
vt 0.656250 0.257812
vt 0.664062 0.257812
vt 0.664062 0.265625
vt 0.656250 0.265625
vt 0.640625 0.343750
vt 0.640625 0.335938
vt 0.671875 0.367188
vt 0.656250 0.367188
vt 0.656250 0.375000
vt 0.671875 0.375000
vt 0.656250 0.335938
vt 0.656250 0.343750
vt 0.734375 0.335938
vt 0.742188 0.335938
vt 0.742188 0.343750
vt 0.734375 0.343750
vt 0.656250 0.351562
vt 0.671875 0.351562
vt 0.671875 0.359375
vt 0.656250 0.359375
vt 0.671875 0.257812
vt 0.679688 0.257812
vt 0.679688 0.265625
vt 0.671875 0.265625
vt 0.671875 0.343750
vt 0.671875 0.335938
vt 0.687500 0.992188
vt 0.671875 0.992188
vt 0.671875 1.000000
vt 0.687500 1.000000
vt 0.671875 0.976562
vt 0.687500 0.976562
vt 0.687500 0.984375
vt 0.671875 0.984375
vt 0.734375 0.320312
vt 0.742188 0.320312
vt 0.742188 0.328125
vt 0.734375 0.328125
vt 0.687500 0.960938
vt 0.687500 0.968750
vt 0.687500 0.257812
vt 0.695312 0.257812
vt 0.695312 0.265625
vt 0.687500 0.265625
vt 0.687500 0.953125
vt 0.687500 0.945312
vt 0.687500 0.929688
vt 0.687500 0.937500
vt 0.687500 0.914062
vt 0.687500 0.921875
vt 0.734375 0.304688
vt 0.742188 0.304688
vt 0.742188 0.312500
vt 0.734375 0.312500
vt 0.687500 0.898438
vt 0.687500 0.906250
vt 0.703125 0.257812
vt 0.710938 0.257812
vt 0.710938 0.265625
vt 0.703125 0.265625
vt 0.687500 0.890625
vt 0.687500 0.882812
vt 0.687500 0.867188
vt 0.687500 0.875000
vt 0.687500 0.851562
vt 0.687500 0.859375
vt 0.734375 0.289062
vt 0.742188 0.289062
vt 0.742188 0.296875
vt 0.734375 0.296875
vt 0.687500 0.835938
vt 0.687500 0.843750
vt 0.718750 0.257812
vt 0.726562 0.257812
vt 0.726562 0.265625
vt 0.718750 0.265625
vt 0.687500 0.828125
vt 0.687500 0.820312
vt 0.687500 0.804688
vt 0.687500 0.812500
vt 0.671875 0.695312
vt 0.687500 0.695312
vt 0.687500 0.703125
vt 0.671875 0.703125
vt 0.539062 0.242188
vt 0.554688 0.242188
vt 0.687500 0.679688
vt 0.687500 0.687500
vt 0.750000 0.445312
vt 0.765625 0.460938
vt 0.687500 0.671875
vt 0.687500 0.664062
vt 0.359375 0.320312
vt 0.343750 0.320312
vt 0.343750 0.328125
vt 0.359375 0.328125
vt 0.765625 0.523438
vt 0.781250 0.523438
vt 0.781250 0.531250
vt 0.765625 0.531250
vt 0.765625 0.476562
vt 0.773438 0.476562
vt 0.773438 0.484375
vt 0.765625 0.484375
vt 0.484375 0.226562
vt 0.500000 0.226562
vt 0.500000 0.234375
vt 0.484375 0.234375
vt 0.546875 0.226562
vt 0.554688 0.226562
vt 0.554688 0.234375
vt 0.546875 0.234375
vt 0.781250 0.515625
vt 0.765625 0.515625
vt 0.765625 0.507812
vt 0.781250 0.507812
vt 0.515625 0.226562
vt 0.515625 0.234375
vt 0.671875 0.710938
vt 0.687500 0.710938
vt 0.687500 0.718750
vt 0.671875 0.718750
vt 0.765625 0.492188
vt 0.773438 0.492188
vt 0.773438 0.500000
vt 0.765625 0.500000
vt 0.312500 0.320312
vt 0.312500 0.328125
vt 0.523438 0.226562
vt 0.523438 0.234375
vt 0.781250 0.546875
vt 0.765625 0.546875
vt 0.765625 0.539062
vt 0.781250 0.539062
vt 0.468750 0.226562
vt 0.468750 0.234375
vt 0.468750 0.367188
vt 0.484375 0.367188
vt 0.484375 0.375000
vt 0.468750 0.375000
vt 0.453125 0.851562
vt 0.492188 0.851562
vt 0.492188 0.859375
vt 0.453125 0.859375
vt 0.500000 0.367188
vt 0.500000 0.375000
vt 0.453125 0.835938
vt 0.492188 0.835938
vt 0.492188 0.843750
vt 0.453125 0.843750
vt 0.406250 0.687500
vt 0.390625 0.648438
vt 0.406250 0.648438
vt 0.390625 0.570312
vt 0.375000 0.570312
vt 0.375000 0.609375
vt 0.390625 0.609375
vt 0.640625 0.367188
vt 0.640625 0.375000
vt 0.453125 0.789062
vt 0.492188 0.789062
vt 0.492188 0.796875
vt 0.453125 0.796875
vt 0.640625 0.351562
vt 0.640625 0.359375
vt 0.453125 0.757812
vt 0.492188 0.757812
vt 0.492188 0.765625
vt 0.421875 0.953125
vt 0.406250 0.953125
vt 0.406250 0.914062
vt 0.421875 0.914062
vt 0.421875 0.867188
vt 0.406250 0.867188
vt 0.406250 0.906250
vt 0.421875 0.906250
vt 0.390625 0.875000
vt 0.406250 0.875000
vt 0.390625 0.906250
vt 0.437500 0.515625
vt 0.445312 0.515625
vt 0.445312 0.546875
vt 0.437500 0.546875
vt 0.421875 0.937500
vt 0.421875 0.968750
vt 0.453125 0.531250
vt 0.460938 0.531250
vt 0.460938 0.562500
vt 0.687500 0.796875
vt 0.687500 0.789062
vt 0.234375 0.320312
vt 0.218750 0.320312
vt 0.218750 0.328125
vt 0.234375 0.328125
vt 0.281250 0.351562
vt 0.289062 0.351562
vt 0.289062 0.375000
vt 0.281250 0.375000
vt 0.296875 0.351562
vt 0.304688 0.351562
vt 0.304688 0.375000
vt 0.296875 0.375000
vt 0.343750 0.351562
vt 0.351562 0.351562
vt 0.351562 0.375000
vt 0.343750 0.375000
vt 0.359375 0.351562
vt 0.367188 0.351562
vt 0.367188 0.375000
vt 0.359375 0.375000
vt 0.742188 0.281250
vt 0.734375 0.281250
vt 0.734375 0.273438
vt 0.742188 0.273438
vt 0.742188 0.257812
vt 0.734375 0.257812
vt 0.734375 0.265625
vt 0.742188 0.265625
vt 0.750000 0.992188
vt 0.757812 0.992188
vt 0.757812 1.000000
vt 0.750000 1.000000
vt 0.750000 0.976562
vt 0.757812 0.976562
vt 0.757812 0.984375
vt 0.750000 0.984375
vt 0.750000 0.960938
vt 0.757812 0.960938
vt 0.757812 0.968750
vt 0.750000 0.968750
vt 0.750000 0.945312
vt 0.757812 0.945312
vt 0.757812 0.953125
vt 0.750000 0.953125
vt 0.757812 0.937500
vt 0.750000 0.937500
vt 0.750000 0.929688
vt 0.757812 0.929688
vt 0.757812 0.914062
vt 0.750000 0.914062
vt 0.750000 0.921875
vt 0.757812 0.921875
vt 0.750000 0.898438
vt 0.757812 0.898438
vt 0.757812 0.906250
vt 0.750000 0.906250
vt 0.750000 0.882812
vt 0.757812 0.882812
vt 0.757812 0.890625
vt 0.750000 0.890625
vt 0.750000 0.867188
vt 0.757812 0.867188
vt 0.757812 0.875000
vt 0.750000 0.875000
vt 0.750000 0.851562
vt 0.757812 0.851562
vt 0.757812 0.859375
vt 0.750000 0.859375
vt 0.757812 0.843750
vt 0.750000 0.843750
vt 0.750000 0.835938
vt 0.757812 0.835938
vt 0.757812 0.820312
vt 0.750000 0.820312
vt 0.750000 0.828125
vt 0.757812 0.828125
vt 0.750000 0.804688
vt 0.757812 0.804688
vt 0.757812 0.812500
vt 0.750000 0.812500
vt 0.750000 0.789062
vt 0.757812 0.789062
vt 0.757812 0.796875
vt 0.750000 0.796875
vt 0.218750 0.242188
vt 0.226562 0.242188
vt 0.226562 0.250000
vt 0.218750 0.250000
vt 0.750000 0.773438
vt 0.757812 0.773438
vt 0.757812 0.781250
vt 0.750000 0.781250
vt 0.242188 0.250000
vt 0.234375 0.250000
vt 0.234375 0.242188
vt 0.242188 0.242188
vt 0.757812 0.757812
vt 0.750000 0.757812
vt 0.750000 0.765625
vt 0.757812 0.765625
vt 0.250000 0.242188
vt 0.257812 0.242188
vt 0.257812 0.250000
vt 0.250000 0.250000
vt 0.750000 0.742188
vt 0.757812 0.742188
vt 0.757812 0.750000
vt 0.750000 0.750000
vt 0.265625 0.242188
vt 0.273438 0.242188
vt 0.273438 0.250000
vt 0.265625 0.250000
vt 0.750000 0.726562
vt 0.757812 0.726562
vt 0.757812 0.734375
vt 0.750000 0.734375
vt 0.289062 0.250000
vt 0.281250 0.250000
vt 0.281250 0.242188
vt 0.289062 0.242188
vt 0.757812 0.710938
vt 0.750000 0.710938
vt 0.750000 0.718750
vt 0.757812 0.718750
vt 0.679688 0.750000
vt 0.679688 0.765625
vt 0.250000 0.312500
vt 0.257812 0.312500
vt 0.257812 0.328125
vt 0.250000 0.328125
vt 0.679688 0.734375
vt 0.265625 0.312500
vt 0.273438 0.312500
vt 0.273438 0.328125
vt 0.265625 0.328125
vt 0.304688 0.250000
vt 0.296875 0.250000
vt 0.296875 0.242188
vt 0.304688 0.242188
vt 0.757812 0.695312
vt 0.750000 0.695312
vt 0.750000 0.703125
vt 0.757812 0.703125
vt 0.648438 0.375000
vt 0.648438 0.390625
vt 0.640625 0.390625
vt 0.632812 0.343750
vt 0.632812 0.359375
vt 0.664062 0.984375
vt 0.664062 1.000000
vt 0.656250 1.000000
vt 0.664062 0.968750
vt 0.398438 0.250000
vt 0.390625 0.242188
vt 0.398438 0.242188
vt 0.757812 0.601562
vt 0.750000 0.601562
vt 0.757812 0.609375
vt 0.000000 0.781250
vt 0.218750 0.484375
vt 0.265625 0.484375
vt 0.265625 0.703125
vt 0.218750 0.703125
vt 0.312500 0.484375
vt 0.312500 0.703125
vt 0.000000 0.953125
vt 0.468750 0.625000
vt 0.476562 0.625000
vt 0.476562 0.656250
vt 0.468750 0.656250
vt 0.468750 0.593750
vt 0.476562 0.593750
vt 0.476562 0.562500
vt 0.468750 0.531250
vt 0.476562 0.531250
vt 0.585938 0.250000
vt 0.578125 0.250000
vt 0.578125 0.242188
vt 0.585938 0.242188
vt 0.757812 0.414062
vt 0.750000 0.414062
vt 0.750000 0.421875
vt 0.757812 0.421875
vt 0.687500 0.773438
vt 0.687500 0.781250
vt 0.453125 0.820312
vt 0.492188 0.820312
vt 0.492188 0.828125
vt 0.453125 0.828125
vt 0.250000 0.320312
vt 0.453125 0.804688
vt 0.492188 0.804688
vt 0.492188 0.812500
vt 0.453125 0.812500
vt 0.406250 0.609375
vt 0.406250 0.570312
vt 0.421875 0.960938
vt 0.406250 0.960938
vt 0.406250 1.000000
vt 0.421875 1.000000
vt 0.750000 0.679688
vt 0.750000 0.687500
vt 0.492188 0.742188
vt 0.492188 0.750000
vt 0.453125 0.750000
vt 0.750000 0.664062
vt 0.750000 0.671875
vt 0.453125 0.695312
vt 0.492188 0.695312
vt 0.492188 0.703125
vt 0.453125 0.703125
vt 0.421875 0.859375
vt 0.406250 0.859375
vt 0.406250 0.820312
vt 0.421875 0.820312
vt 0.421875 0.812500
vt 0.468750 0.968750
vt 0.476562 0.968750
vt 0.476562 1.000000
vt 0.468750 1.000000
vt 0.421875 0.875000
vt 0.437500 0.875000
vt 0.468750 0.937500
vt 0.476562 0.937500
vt 0.343750 0.250000
vt 0.343750 0.242188
vt 0.359375 0.242188
vt 0.750000 0.648438
vt 0.750000 0.656250
vt 0.375000 0.351562
vt 0.382812 0.351562
vt 0.382812 0.375000
vt 0.375000 0.375000
vt 0.390625 0.351562
vt 0.398438 0.351562
vt 0.398438 0.375000
vt 0.390625 0.375000
vt 0.406250 0.351562
vt 0.414062 0.351562
vt 0.414062 0.375000
vt 0.406250 0.375000
vt 0.421875 0.351562
vt 0.429688 0.351562
vt 0.429688 0.375000
vt 0.421875 0.375000
vt 0.414062 0.250000
vt 0.406250 0.250000
vt 0.406250 0.242188
vt 0.414062 0.242188
vt 0.757812 0.585938
vt 0.750000 0.585938
vt 0.750000 0.593750
vt 0.757812 0.593750
vt 0.421875 0.242188
vt 0.429688 0.242188
vt 0.429688 0.250000
vt 0.421875 0.250000
vt 0.750000 0.570312
vt 0.757812 0.570312
vt 0.757812 0.578125
vt 0.750000 0.578125
vt 0.437500 0.242188
vt 0.445312 0.242188
vt 0.445312 0.250000
vt 0.437500 0.250000
vt 0.757812 0.554688
vt 0.757812 0.562500
vt 0.460938 0.250000
vt 0.453125 0.250000
vt 0.453125 0.242188
vt 0.460938 0.242188
vt 0.757812 0.539062
vt 0.750000 0.539062
vt 0.750000 0.546875
vt 0.757812 0.546875
vt 0.468750 0.242188
vt 0.476562 0.242188
vt 0.476562 0.250000
vt 0.468750 0.250000
vt 0.750000 0.523438
vt 0.757812 0.523438
vt 0.757812 0.531250
vt 0.750000 0.531250
vt 0.484375 0.242188
vt 0.492188 0.242188
vt 0.492188 0.250000
vt 0.484375 0.250000
vt 0.750000 0.507812
vt 0.757812 0.507812
vt 0.757812 0.515625
vt 0.750000 0.515625
vt 0.507812 0.250000
vt 0.500000 0.250000
vt 0.500000 0.242188
vt 0.507812 0.242188
vt 0.757812 0.492188
vt 0.750000 0.492188
vt 0.750000 0.500000
vt 0.757812 0.500000
vt 0.515625 0.242188
vt 0.523438 0.242188
vt 0.523438 0.250000
vt 0.515625 0.250000
vt 0.750000 0.476562
vt 0.757812 0.476562
vt 0.757812 0.484375
vt 0.750000 0.484375
vt 0.562500 0.242188
vt 0.570312 0.242188
vt 0.570312 0.250000
vt 0.562500 0.250000
vt 0.750000 0.429688
vt 0.757812 0.429688
vt 0.757812 0.437500
vt 0.750000 0.437500
vt 0.773438 0.890625
vt 0.765625 0.890625
vt 0.765625 0.882812
vt 0.773438 0.882812
vt 0.132812 0.226562
vt 0.125000 0.226562
vt 0.125000 0.234375
vt 0.132812 0.234375
vt 0.765625 0.867188
vt 0.773438 0.867188
vt 0.773438 0.875000
vt 0.765625 0.875000
vt 0.140625 0.226562
vt 0.148438 0.226562
vt 0.148438 0.234375
vt 0.140625 0.234375
vt 0.765625 0.851562
vt 0.773438 0.851562
vt 0.773438 0.859375
vt 0.765625 0.859375
vt 0.156250 0.226562
vt 0.164062 0.226562
vt 0.164062 0.234375
vt 0.156250 0.234375
vt 0.773438 0.843750
vt 0.765625 0.843750
vt 0.765625 0.835938
vt 0.773438 0.835938
vt 0.179688 0.226562
vt 0.171875 0.226562
vt 0.171875 0.234375
vt 0.179688 0.234375
vt 0.468750 0.906250
vt 0.476562 0.906250
vt 0.468750 0.875000
vt 0.476562 0.875000
vt 0.468750 0.703125
vt 0.476562 0.703125
vt 0.476562 0.734375
vt 0.468750 0.734375
vt 0.476562 0.687500
vt 0.468750 0.687500
vt 0.765625 0.789062
vt 0.773438 0.789062
vt 0.226562 0.226562
vt 0.218750 0.226562
vt 0.218750 0.234375
vt 0.226562 0.234375
s 1
usemtl m_b2595316-4466-992c-84c3-0428e2ebf3d3.012
f 4/1/1 7/2/1 5/3/1 2/4/1
f 3/5/2 4/6/2 2/7/2 1/8/2
f 8/2/3 3/9/3 1/10/3 6/3/3
f 7/11/4 8/12/4 6/13/4 5/14/4
f 6/15/5 1/16/5 2/17/5 5/18/5
f 7/19/6 4/20/6 3/21/6 8/22/6
f 12/23/7 15/24/7 13/25/7 10/26/7
f 11/27/2 12/28/2 10/29/2 9/30/2
f 16/31/8 11/32/8 9/33/8 14/34/8
f 15/35/4 16/36/4 14/37/4 13/38/4
f 14/39/9 9/40/9 10/41/9 13/42/9
f 15/43/10 12/44/10 11/45/10 16/46/10
f 20/47/11 23/48/11 21/49/11 18/50/11
f 19/51/12 20/52/12 18/53/12 17/54/12
f 24/55/13 19/56/13 17/57/13 22/58/13
f 23/59/4 24/60/4 22/61/4 21/62/4
f 22/63/14 17/64/14 18/65/14 21/66/14
f 23/67/15 20/68/15 19/69/15 24/70/15
f 28/71/16 31/72/16 29/73/16 26/74/16
f 27/75/17 28/76/17 26/77/17 25/78/17
f 32/79/18 27/80/18 25/81/18 30/82/18
f 31/83/4 32/84/4 30/85/4 29/86/4
f 30/87/19 25/88/19 26/89/19 29/90/19
f 31/91/20 28/92/20 27/93/20 32/94/20
f 36/95/21 39/96/21 37/97/21 34/98/21
f 35/99/17 36/100/17 34/101/17 33/102/17
f 40/103/22 35/104/22 33/105/22 38/106/22
f 39/107/4 40/108/4 38/109/4 37/110/4
f 38/111/23 33/112/23 34/113/23 37/114/23
f 39/115/24 36/116/24 35/117/24 40/118/24
f 44/119/25 47/120/25 45/121/25 42/122/25
f 43/100/17 44/123/17 42/124/17 41/101/17
f 48/125/26 43/126/26 41/127/26 46/128/26
f 47/129/27 48/130/27 46/131/27 45/132/27
f 46/133/28 41/134/28 42/135/28 45/136/28
f 47/137/29 44/138/29 43/139/29 48/140/29
f 52/141/30 55/142/30 53/143/30 50/144/30
f 51/145/17 52/146/17 50/147/17 49/148/17
f 56/149/31 51/150/31 49/151/31 54/152/31
f 55/153/32 56/154/32 54/155/32 53/156/32
f 54/157/33 49/158/33 50/159/33 53/160/33
f 55/161/34 52/162/34 51/163/34 56/164/34
f 60/165/35 63/166/35 61/167/35 58/168/35
f 59/169/2 60/170/2 58/171/2 57/172/2
f 64/173/36 59/174/36 57/175/36 62/176/36
f 63/177/4 64/178/4 62/179/4 61/180/4
f 62/181/37 57/182/37 58/183/37 61/184/37
f 63/185/38 60/186/38 59/187/38 64/188/38
f 68/189/39 71/190/39 69/191/39 66/192/39
f 67/193/40 68/194/40 66/195/40 65/196/40
f 72/185/41 67/197/41 65/198/41 70/188/41
f 71/199/27 72/200/27 70/201/27 69/202/27
f 70/203/42 65/204/42 66/205/42 69/206/42
f 71/207/43 68/197/43 67/198/43 72/208/43
f 76/209/44 79/210/44 77/211/44 74/212/44
f 75/213/45 76/214/45 74/215/45 73/216/45
f 80/207/46 75/217/46 73/218/46 78/208/46
f 79/219/47 80/220/47 78/221/47 77/222/47
f 78/223/48 73/224/48 74/225/48 77/226/48
f 79/227/49 76/217/49 75/218/49 80/228/49
f 84/229/50 87/230/50 85/231/50 82/232/50
f 83/233/51 84/234/51 82/235/51 81/236/51
f 88/227/22 83/237/22 81/238/22 86/228/22
f 87/239/32 88/240/32 86/241/32 85/242/32
f 86/243/52 81/244/52 82/245/52 85/246/52
f 87/247/6 84/237/6 83/238/6 88/248/6
f 92/249/53 95/250/53 93/251/53 90/252/53
f 91/234/54 92/253/54 90/254/54 89/235/54
f 96/247/22 91/255/22 89/256/22 94/248/22
f 95/257/55 96/258/55 94/259/55 93/260/55
f 94/261/56 89/262/56 90/263/56 93/264/56
f 95/265/6 92/255/6 91/256/6 96/266/6
f 100/267/50 103/268/50 101/269/50 98/270/50
f 99/271/2 100/272/2 98/273/2 97/274/2
f 104/265/57 99/275/57 97/276/57 102/266/57
f 103/277/4 104/278/4 102/279/4 101/280/4
f 102/281/5 97/282/5 98/283/5 101/284/5
f 103/285/6 100/286/6 99/283/6 104/284/6
f 108/287/53 111/288/53 109/289/53 106/290/53
f 107/291/54 108/292/54 106/293/54 105/294/54
f 112/275/58 107/295/58 105/296/58 110/276/58
f 111/297/59 112/298/59 110/299/59 109/300/59
f 110/301/23 105/302/23 106/303/23 109/304/23
f 111/305/60 108/295/60 107/296/60 112/306/60
f 116/307/35 119/308/35 117/309/35 114/310/35
f 115/311/61 116/312/61 114/313/61 113/314/61
f 120/315/62 115/316/62 113/317/62 118/318/62
f 119/319/55 120/320/55 118/321/55 117/322/55
f 118/323/37 113/324/37 114/325/37 117/326/37
f 119/327/38 116/316/38 115/317/38 120/328/38
f 124/329/63 127/330/63 125/331/63 122/332/63
f 123/333/64 124/334/64 122/335/64 121/336/64
f 128/337/65 123/338/65 121/339/65 126/340/65
f 127/341/27 128/342/27 126/343/27 125/344/27
f 126/345/9 121/346/9 122/347/9 125/348/9
f 127/315/66 124/338/66 123/339/66 128/318/66
f 132/349/67 135/350/67 133/351/67 130/352/67
f 131/353/68 132/354/68 130/355/68 129/356/68
f 136/357/69 131/358/69 129/359/69 134/360/69
f 135/361/47 136/362/47 134/363/47 133/364/47
f 134/365/70 129/366/70 130/367/70 133/368/70
f 135/337/71 132/358/71 131/359/71 136/340/71
f 140/369/72 143/370/72 141/371/72 138/372/72
f 139/373/2 140/374/2 138/375/2 137/376/2
f 144/377/73 139/378/73 137/379/73 142/380/73
f 143/327/4 144/381/4 142/382/4 141/328/4
f 142/383/74 137/384/74 138/385/74 141/386/74
f 143/357/75 140/378/75 139/379/75 144/360/75
f 148/387/76 151/388/76 149/389/76 146/390/76
f 147/391/77 148/392/77 146/393/77 145/394/77
f 152/395/78 147/396/78 145/397/78 150/398/78
f 151/399/79 152/400/79 150/401/79 149/402/79
f 150/403/5 145/404/5 146/405/5 149/406/5
f 151/407/6 148/408/6 147/409/6 152/410/6
f 156/411/50 159/412/50 157/413/50 154/414/50
f 155/415/2 156/414/2 154/280/2 153/281/2
f 160/416/3 155/417/3 153/418/3 158/419/3
f 159/420/4 160/411/4 158/414/4 157/415/4
f 158/421/5 153/420/5 154/422/5 157/423/5
f 159/424/6 156/425/6 155/286/6 160/285/6
f 164/426/1 167/427/1 165/424/1 162/425/1
f 163/428/2 164/429/2 162/430/2 161/431/2
f 168/432/3 163/433/3 161/434/3 166/435/3
f 167/436/4 168/437/4 166/438/4 165/439/4
f 166/440/5 161/33/5 162/32/5 165/441/5
f 167/442/24 164/42/24 163/39/24 168/443/24
f 172/444/50 175/445/50 173/446/50 170/447/50
f 171/448/2 172/449/2 170/450/2 169/451/2
f 176/445/58 171/452/58 169/453/58 174/446/58
f 175/454/4 176/455/4 174/456/4 173/457/4
f 174/458/23 169/46/23 170/43/23 173/459/23
f 175/460/24 172/48/24 171/49/24 176/461/24
f 180/56/50 183/462/50 181/463/50 178/57/50
f 179/108/51 180/464/51 178/465/51 177/109/51
f 184/66/57 179/466/57 177/467/57 182/63/57
f 183/468/4 184/469/4 182/470/4 181/471/4
f 182/472/5 177/70/5 178/67/5 181/473/5
f 183/474/6 180/72/6 179/73/6 184/475/6
f 188/476/80 191/477/80 189/478/80 186/479/80
f 187/480/2 188/481/2 186/482/2 185/483/2
f 192/484/81 187/485/81 185/486/81 190/487/81
f 191/488/4 192/489/4 190/490/4 189/491/4
f 190/492/82 185/81/82 186/80/82 189/493/82
f 191/494/83 188/90/83 187/87/83 192/495/83
f 196/496/84 199/497/84 197/498/84 194/499/84
f 195/500/2 196/501/2 194/502/2 193/503/2
f 200/504/85 195/505/85 193/506/85 198/507/85
f 199/508/4 200/509/4 198/510/4 197/511/4
f 198/512/86 193/94/86 194/91/86 197/513/86
f 199/514/87 196/96/87 195/97/87 200/515/87
f 204/516/50 207/517/50 205/518/50 202/519/50
f 203/520/2 204/521/2 202/522/2 201/523/2
f 208/104/58 203/524/58 201/525/58 206/105/58
f 207/469/4 208/526/4 206/527/4 205/470/4
f 206/528/23 201/518/23 202/517/23 205/529/23
f 207/530/88 204/114/88 203/111/88 208/531/88
f 212/529/50 215/532/50 213/533/50 210/528/50
f 211/534/54 212/535/54 210/536/54 209/537/54
f 216/115/3 211/538/3 209/539/3 214/118/3
f 215/540/4 216/541/4 214/542/4 213/543/4
f 214/544/52 209/533/52 210/532/52 213/545/52
f 215/387/89 212/120/89 211/121/89 216/390/89
f 220/137/21 223/546/21 221/547/21 218/140/21
f 219/548/2 220/549/2 218/550/2 217/551/2
f 224/142/3 219/552/3 217/553/3 222/143/3
f 223/554/4 224/555/4 222/556/4 221/557/4
f 222/558/5 217/559/5 218/560/5 221/561/5
f 223/562/6 220/150/6 219/151/6 224/563/6
f 228/561/50 231/564/50 229/565/50 226/558/50
f 227/566/2 228/567/2 226/568/2 225/569/2
f 232/160/58 227/570/58 225/571/58 230/157/58
f 231/572/4 232/573/4 230/574/4 229/575/4
f 230/576/5 225/565/5 226/564/5 229/577/5
f 231/578/90 228/161/90 227/164/90 232/579/90
f 236/577/91 239/580/91 237/581/91 234/576/91
f 235/240/2 236/582/2 234/583/2 233/241/2
f 240/166/92 235/584/92 233/585/92 238/167/92
f 239/586/4 240/587/4 238/588/4 237/589/4
f 238/590/93 233/581/93 234/580/93 237/591/93
f 239/592/94 236/174/94 235/175/94 240/593/94
f 244/591/95 247/594/95 245/595/95 242/590/95
f 243/596/2 244/597/2 242/598/2 241/599/2
f 248/184/96 243/600/96 241/601/96 246/181/96
f 247/602/27 248/603/27 246/604/27 245/605/27
f 246/606/97 241/595/97 242/594/97 245/607/97
f 247/608/98 244/190/98 243/191/98 248/609/98
f 252/328/19 255/364/19 253/610/19 250/611/19
f 251/612/2 252/613/2 250/614/2 249/615/2
f 256/616/20 251/336/20 249/356/20 254/617/20
f 255/618/4 256/619/4 254/613/4 253/612/4
f 254/620/18 249/621/18 250/622/18 253/623/18
f 255/624/99 252/625/99 251/626/99 256/627/99
f 260/364/100 263/344/100 261/628/100 258/610/100
f 259/629/2 260/630/2 258/631/2 257/632/2
f 264/633/28 259/314/28 257/336/28 262/616/28
f 263/634/4 264/635/4 262/636/4 261/627/4
f 262/637/101 257/629/101 258/638/101 261/639/101
f 263/640/26 260/641/26 259/642/26 264/643/26
f 268/644/102 271/645/102 269/646/102 266/647/102
f 267/648/2 268/649/2 266/650/2 265/651/2
f 272/246/103 267/652/103 265/653/103 270/243/103
f 271/654/4 272/655/4 270/656/4 269/657/4
f 270/658/104 265/646/104 266/645/104 269/659/104
f 271/660/105 268/250/105 267/251/105 272/661/105
f 276/659/102 279/662/102 277/663/102 274/658/102
f 275/664/12 276/665/12 274/666/12 273/667/12
f 280/264/103 275/668/103 273/669/103 278/261/103
f 279/670/4 280/671/4 278/672/4 277/673/4
f 278/674/106 273/663/106 274/662/106 277/675/106
f 279/676/107 276/268/107 275/269/107 280/677/107
f 284/675/108 287/678/108 285/679/108 282/674/108
f 283/680/51 284/681/51 282/682/51 281/683/51
f 288/288/109 283/684/109 281/685/109 286/289/109
f 287/686/110 288/687/110 286/688/110 285/689/110
f 286/690/111 281/679/111 282/678/111 285/691/111
f 287/692/112 284/304/112 283/301/112 288/693/112
f 292/691/113 295/694/113 293/695/113 290/690/113
f 291/696/2 292/697/2 290/698/2 289/699/2
f 296/700/114 291/701/114 289/702/114 294/703/114
f 295/704/27 296/705/27 294/706/27 293/707/27
f 294/708/115 289/695/115 290/694/115 293/709/115
f 295/710/116 292/711/116 291/712/116 296/713/116
f 300/709/53 303/714/53 301/715/53 298/708/53
f 299/716/117 300/717/117 298/718/117 297/719/117
f 304/720/58 299/721/58 297/722/58 302/723/58
f 303/724/4 304/725/4 302/726/4 301/727/4
f 302/728/23 297/715/23 298/714/23 301/729/23
f 303/730/118 300/731/118 299/732/118 304/733/118
f 308/734/53 311/735/53 309/736/53 306/737/53
f 307/738/2 308/739/2 306/740/2 305/741/2
f 312/441/57 307/742/57 305/743/57 310/440/57
f 311/744/119 312/745/119 310/746/119 309/747/119
f 310/748/52 305/443/52 306/442/52 309/749/52
f 311/750/90 308/459/90 307/458/90 312/751/90
f 316/460/53 319/752/53 317/753/53 314/461/53
f 315/754/117 316/755/117 314/756/117 313/757/117
f 320/462/57 315/758/57 313/759/57 318/463/57
f 319/760/4 320/761/4 318/762/4 317/763/4
f 318/764/52 313/467/52 314/466/52 317/765/52
f 319/766/120 316/473/120 315/472/120 320/767/120
f 324/474/50 327/768/50 325/769/50 322/475/50
f 323/770/2 324/771/2 322/772/2 321/773/2
f 328/493/57 323/774/57 321/775/57 326/492/57
f 327/776/4 328/777/4 326/778/4 325/779/4
f 326/780/56 321/495/56 322/494/56 325/781/56
f 327/782/24 324/513/24 323/512/24 328/783/24
f 332/784/121 335/785/121 333/786/121 330/787/121
f 331/788/51 332/789/51 330/587/51 329/573/51
f 336/546/107 331/790/107 329/791/107 334/547/107
f 335/792/4 336/622/4 334/793/4 333/391/4
f 334/794/122 329/553/122 330/552/122 333/795/122
f 335/796/123 332/797/123 331/798/123 336/799/123
f 340/800/50 343/801/50 341/802/50 338/803/50
f 339/804/117 340/805/117 338/806/117 337/807/117
f 344/808/22 339/809/22 337/810/22 342/811/22
f 343/812/124 344/813/124 342/814/124 341/815/124
f 342/816/56 337/817/56 338/818/56 341/819/56
f 343/820/125 340/809/125 339/810/125 344/821/125
f 348/822/50 351/823/50 349/824/50 346/825/50
f 347/826/117 348/827/117 346/828/117 345/829/117
f 352/396/3 347/830/3 345/831/3 350/397/3
f 351/820/126 352/832/126 350/833/126 349/821/126
f 350/834/23 345/835/23 346/836/23 349/837/23
f 351/808/6 348/838/6 347/839/6 352/811/6
f 356/840/50 359/841/50 357/842/50 354/843/50
f 355/844/2 356/845/2 354/846/2 353/847/2
f 360/841/58 355/848/58 353/849/58 358/842/58
f 359/850/4 360/851/4 358/852/4 357/853/4
f 358/854/5 353/421/5 354/855/5 357/856/5
f 359/857/6 356/858/6 355/859/6 360/860/6
f 364/861/50 367/711/50 365/712/50 362/862/50
f 363/863/2 364/864/2 362/865/2 361/866/2
f 368/867/58 363/720/58 361/723/58 366/868/58
f 367/869/4 368/870/4 366/871/4 365/506/4
f 366/872/5 361/873/5 362/874/5 365/875/5
f 367/876/6 364/877/6 363/878/6 368/879/6
f 372/880/50 375/881/50 373/878/50 370/882/50
f 371/883/2 372/884/2 370/885/2 369/886/2
f 376/887/58 371/487/58 369/479/58 374/888/58
f 375/889/4 376/890/4 374/891/4 373/416/4
f 374/892/23 369/515/23 370/514/23 373/893/23
f 375/894/24 372/895/24 371/896/24 376/897/24
f 380/898/50 383/899/50 381/900/50 378/901/50
f 379/902/12 380/903/12 378/904/12 377/905/12
f 384/906/3 379/907/3 377/908/3 382/909/3
f 383/910/55 384/911/55 382/912/55 381/913/55
f 382/914/5 377/915/5 378/916/5 381/917/5
f 383/918/6 380/919/6 379/920/6 384/921/6
f 388/922/127 391/923/127 389/924/127 386/925/127
f 387/926/2 388/927/2 386/928/2 385/929/2
f 392/930/128 387/931/128 385/932/128 390/933/128
f 391/934/4 392/935/4 390/936/4 389/937/4
f 390/938/129 385/939/129 386/940/129 389/941/129
f 391/942/130 388/943/130 387/944/130 392/945/130
f 396/946/131 399/947/131 397/948/131 394/949/131
f 395/950/2 396/951/2 394/952/2 393/953/2
f 400/954/132 395/955/132 393/956/132 398/957/132
f 399/958/32 400/959/32 398/960/32 397/961/32
f 398/962/133 393/963/133 394/964/133 397/965/133
f 399/966/134 396/967/134 395/968/134 400/969/134
f 404/970/135 407/971/135 405/972/135 402/973/135
f 403/974/12 404/975/12 402/976/12 401/977/12
f 408/978/136 403/979/136 401/980/136 406/981/136
f 407/982/59 408/983/59 406/984/59 405/985/59
f 406/986/137 401/987/137 402/988/137 405/989/137
f 407/990/138 404/991/138 403/992/138 408/993/138
f 412/994/139 415/995/139 413/996/139 410/997/139
f 411/998/17 412/999/17 410/1000/17 409/1001/17
f 416/1002/140 411/1003/140 409/1004/140 414/1005/140
f 415/1006/4 416/1007/4 414/1008/4 413/1009/4
f 414/1010/141 409/1011/141 410/1012/141 413/1013/141
f 415/1014/142 412/1015/142 411/1016/142 416/1017/142
f 420/539/1 423/1018/1 421/1019/1 418/531/1
f 419/1020/2 420/1021/2 418/1022/2 417/1023/2
f 424/390/3 419/1024/3 417/1018/3 422/539/3
f 423/1025/4 424/1026/4 422/1027/4 421/1028/4
f 422/1029/5 417/1030/5 418/1031/5 421/1032/5
f 423/1033/24 420/1034/24 419/1035/24 424/1036/24
f 428/862/50 431/1037/50 429/1038/50 426/1039/50
f 427/695/2 428/1040/2 426/1041/2 425/306/2
f 432/25/3 427/1042/3 425/1043/3 430/1044/3
f 431/33/4 432/1045/4 430/1042/4 429/25/4
f 430/1046/143 425/628/143 426/1047/143 429/1048/143
f 431/1049/24 428/1050/24 427/633/24 432/1051/24
f 436/1052/144 439/1052/145 437/8/144 434/8/146
f 435/1053/2 436/1054/2 434/1055/2 433/1056/2
f 440/1052/144 435/1052/147 433/8/144 438/8/148
f 439/1054/4 440/1057/4 438/1058/4 437/1055/4
f 438/8/144 433/8/149 434/1059/150 437/1059/151
f 439/1059/150 436/1059/152 435/8/144 440/8/153
f 444/1060/21 447/1061/21 445/1062/21 442/1063/21
f 443/1064/2 444/1065/2 442/1061/2 441/1060/2
f 448/417/3 443/1066/3 441/1065/3 446/1064/3
f 447/1067/4 448/1068/4 446/1066/4 445/417/4
f 446/1069/154 441/1070/154 442/1071/154 445/1072/154
f 447/1073/6 444/1074/6 443/1075/6 448/1076/6
f 452/524/53 455/1077/53 453/1078/53 450/525/53
f 451/1079/17 452/1080/17 450/1081/17 449/1082/17
f 456/894/58 451/1083/58 449/1023/58 454/897/58
f 455/1084/4 456/1085/4 454/1086/4 453/1087/4
f 454/1088/5 449/860/5 450/857/5 453/1089/5
f 455/1090/6 452/1091/6 451/1092/6 456/1093/6
f 460/1094/53 463/307/53 461/310/53 458/1095/53
f 459/505/2 460/1096/2 458/1097/2 457/1098/2
f 464/1099/58 459/325/58 457/324/58 462/1100/58
f 463/1101/4 464/1102/4 462/1103/4 461/1104/4
f 462/1105/23 457/1106/23 458/1107/23 461/1108/23
f 463/271/6 460/18/6 459/15/6 464/1109/6
f 468/879/50 471/499/50 469/487/50 466/887/50
f 467/1110/2 468/1111/2 466/1112/2 465/1113/2
f 472/1114/58 467/1115/58 465/499/58 470/879/58
f 471/1116/4 472/1117/4 470/1111/4 469/1110/4
f 470/611/5 465/1118/5 466/1119/5 469/1120/5
f 471/373/6 468/1121/6 467/1122/6 472/376/6
f 476/1123/50 479/1124/50 477/1125/50 474/1126/50
f 475/1127/2 476/1128/2 474/1129/2 473/1130/2
f 480/1131/3 475/1132/3 473/1133/3 478/1134/3
f 479/1135/4 480/1136/4 478/1137/4 477/1138/4
f 478/1139/23 473/1140/23 474/1141/23 477/1142/23
f 479/1143/24 476/1144/24 475/1145/24 480/1146/24
f 484/1147/155 487/1148/155 485/1149/155 482/1150/155
f 483/1151/2 484/1152/2 482/1153/2 481/1154/2
f 488/1155/156 483/1156/156 481/1157/156 486/1158/156
f 487/464/4 488/1159/4 486/1160/4 485/465/4
f 486/1161/157 481/1162/157 482/1163/157 485/1164/157
f 487/1165/158 484/1166/158 483/1167/158 488/1168/158
f 492/1169/131 495/1170/131 493/1171/131 490/1172/131
f 491/1173/2 492/1174/2 490/1175/2 489/1176/2
f 496/1177/159 491/1178/159 489/1179/159 494/1180/159
f 495/1181/4 496/1182/4 494/1183/4 493/1184/4
f 494/1185/160 489/1186/160 490/1187/160 493/1188/160
f 495/1189/134 492/1190/134 491/1191/134 496/1192/134
f 500/1193/161 503/1194/161 501/1195/161 498/1196/161
f 499/1197/2 500/1198/2 498/1199/2 497/1200/2
f 504/1201/162 499/1202/162 497/1203/162 502/1204/162
f 503/1205/4 504/1206/4 502/1207/4 501/1208/4
f 502/1209/163 497/1210/163 498/1211/163 501/1212/163
f 503/1213/164 500/1214/164 499/1215/164 504/1216/164
f 508/1217/139 511/1218/139 509/1219/139 506/1220/139
f 507/1221/2 508/1222/2 506/1223/2 505/1224/2
f 512/1225/165 507/1226/165 505/1227/165 510/1228/165
f 511/1229/166 512/1230/166 510/1231/166 509/1232/166
f 510/1233/167 505/1234/167 506/1235/167 509/1236/167
f 511/1237/168 508/1238/168 507/1239/168 512/1240/168
f 516/1241/50 519/1242/50 517/1117/50 514/1116/50
f 515/1243/2 516/1244/2 514/1242/2 513/1241/2
f 520/1245/58 515/1246/58 513/1247/58 518/1248/58
f 519/1063/55 520/1062/55 518/1249/55 517/1250/55
f 518/619/52 513/618/52 514/1251/52 517/1252/52
f 519/1253/6 516/1254/6 515/1255/6 520/1256/6
